<svg width="706" height="200" viewBox="0 0 706 200" fill="none" xmlns="http://www.w3.org/2000/svg">
<g clip-path="url(#clip0_2604_958)">
<path fill-rule="evenodd" clip-rule="evenodd" d="M107.143 0H92.8571V63.2531L69.1621 4.60582L55.9166 9.95735L80.2255 70.1239L34.3401 24.2385L24.2386 34.3401L68.2177 78.3191L11.2241 53.4181L5.50459 66.5089L65.8105 92.8571H0V107.143H65.8104L5.50461 133.491L11.2241 146.582L68.2176 121.681L24.2386 165.66L34.3401 175.761L80.2255 129.876L55.9166 190.043L69.1621 195.394L92.8571 136.747V200H107.143V136.747L130.838 195.394L144.083 190.043L119.775 129.876L165.66 175.761L175.761 165.66L131.782 121.681L188.776 146.582L194.495 133.491L134.19 107.143H200V92.8571H134.189L194.495 66.5089L188.776 53.4181L131.782 78.3191L175.761 34.34L165.66 24.2385L119.775 70.1238L144.083 9.95735L130.838 4.60582L107.143 63.2531V0Z" fill="#E07A5F"/>
</g>
<path d="M233.216 148V56.608H241.92V105.76L295.04 56.608H306.816L265.984 94.368L308.736 148H297.472L259.456 100.384L241.92 116.64V148H233.216ZM342.584 80.032C352.312 80.032 360.035 83.488 365.752 90.4C371.128 96.8853 373.816 105.077 373.816 114.976C373.816 124.875 371.128 133.067 365.752 139.552C360.035 146.464 352.312 149.92 342.584 149.92C332.856 149.92 325.133 146.464 319.416 139.552C314.04 133.067 311.352 124.875 311.352 114.976C311.352 105.077 314.04 96.8853 319.416 90.4C325.133 83.488 332.856 80.032 342.584 80.032ZM342.584 86.816C335.245 86.816 329.443 89.76 325.176 95.648C321.336 100.939 319.416 107.381 319.416 114.976C319.416 122.571 321.336 129.013 325.176 134.304C329.443 140.192 335.245 143.136 342.584 143.136C349.923 143.136 355.725 140.192 359.992 134.304C363.832 129.013 365.752 122.571 365.752 114.976C365.752 107.381 363.832 100.939 359.992 95.648C355.725 89.76 349.923 86.816 342.584 86.816ZM411.277 81.952V88.736H398.221V148H390.157V88.736H378.893V81.952H390.157V75.936C390.157 69.6213 391.224 64.9707 393.357 61.984C395.832 58.4 400.098 56.608 406.157 56.608C408.376 56.608 410.637 56.7787 412.941 57.12V64.032C410.552 63.6053 408.589 63.392 407.053 63.392C403.042 63.392 400.44 64.6293 399.245 67.104C398.562 68.5547 398.221 71.584 398.221 76.192V81.952H411.277ZM444.402 81.952V88.736H431.346V148H423.282V88.736H412.018V81.952H423.282V75.936C423.282 69.6213 424.349 64.9707 426.482 61.984C428.957 58.4 433.223 56.608 439.282 56.608C441.501 56.608 443.762 56.7787 446.066 57.12V64.032C443.677 63.6053 441.714 63.392 440.178 63.392C436.167 63.392 433.565 64.6293 432.37 67.104C431.687 68.5547 431.346 71.584 431.346 76.192V81.952H444.402ZM507.607 117.152H456.791C456.876 123.979 458.583 129.781 461.911 134.56C465.922 140.277 471.468 143.136 478.551 143.136C489.474 143.136 496.386 137.504 499.287 126.24H507.351C503.682 142.027 494.082 149.92 478.551 149.92C468.652 149.92 461.058 146.464 455.767 139.552C451.074 133.323 448.727 125.131 448.727 114.976C448.727 105.333 451.074 97.312 455.767 90.912C461.143 83.6587 468.738 80.032 478.551 80.032C488.535 80.032 496.13 83.9147 501.335 91.68C505.858 98.4213 507.948 106.912 507.607 117.152ZM456.791 110.368H499.543C499.372 103.883 497.452 98.4213 493.783 93.984C489.858 89.2053 484.78 86.816 478.551 86.816C472.322 86.816 467.202 89.248 463.191 94.112C459.607 98.3787 457.474 103.797 456.791 110.368ZM573.982 117.152H523.166C523.251 123.979 524.958 129.781 528.286 134.56C532.297 140.277 537.843 143.136 544.926 143.136C555.849 143.136 562.761 137.504 565.662 126.24H573.726C570.057 142.027 560.457 149.92 544.926 149.92C535.027 149.92 527.433 146.464 522.142 139.552C517.449 133.323 515.102 125.131 515.102 114.976C515.102 105.333 517.449 97.312 522.142 90.912C527.518 83.6587 535.113 80.032 544.926 80.032C554.91 80.032 562.505 83.9147 567.71 91.68C572.233 98.4213 574.323 106.912 573.982 117.152ZM523.166 110.368H565.918C565.747 103.883 563.827 98.4213 560.158 93.984C556.233 89.2053 551.155 86.816 544.926 86.816C538.697 86.816 533.577 89.248 529.566 94.112C525.982 98.3787 523.849 103.797 523.166 110.368Z" fill="black"/>
<defs>
<clipPath id="clip0_2604_958">
<rect width="200" height="200" fill="white"/>
</clipPath>
</defs>
</svg>
